<?xml version="1.0" encoding="utf-8"?>
<svg xmlns="http://www.w3.org/2000/svg" width="2500" height="2500" viewBox="16.4 24.923 159.31 67.358" xmlns:bx="https://boxy-svg.com" preserveAspectRatio="none"><defs><bx:export><bx:file format="svg"/></bx:export></defs><g fill-rule="evenodd" clip-rule="evenodd"><g><path d="M64.848 63.854l-4.747-4.88H42.767L72.3 90.366h18.192L77.041 76.471l.002-.008c2.091-3.245 3.486-6.665 4.372-10.674 3.945-17.874-7.083-35.62-24.629-39.638-17.545-4.019-34.969 7.213-38.913 25.086-3.943 17.873 7.083 35.621 24.629 39.638 7.871 1.803 15.188.651 21.914-2.794l.029-.012-12.241-13.38.014-.008c-1.094.228-1.839.319-3.001.319-9.294 0-16.828-7.675-16.828-17.141 0-9.465 7.534-17.141 16.828-17.141 9.292 0 16.827 7.676 16.827 17.141 0 1.867-.398 4.43-1.169 6.027l-.027-.032z" style=""/></g><path d="M 85.272 25.66 L 85.247 73.034 C 85.247 73.034 88.779 91.348 109.431 91.348 C 130.085 91.348 134.044 72.926 134.044 72.926 L 134.044 46 L 118.204 29.105 L 118.204 71.182 C 118.204 71.182 117.241 76.306 109.431 76.306 C 101.621 76.306 101.511 71.072 101.511 71.072 L 101.635 25.681 L 85.272 25.66 Z" style=""/><path d="M 118.152 25.655 L 134.9 41.641 L 145.816 41.641 L 145.816 90.366 L 162.295 90.366 L 162.295 41.641 L 175.029 41.641 L 175.029 25.725 L 118.152 25.655 Z" style=""/></g></svg>