<svg width="645" height="401" viewBox="0 0 645 401" fill="none" xmlns="http://www.w3.org/2000/svg">
<path d="M418.224 312.869C416.049 311.618 413.873 310.368 411.293 308.707C410.682 308.03 410.442 307.801 410.166 307.609C409.97 307.283 409.774 306.956 409.333 306.156C408.761 305.041 408.434 304.399 408.084 303.288C407.988 259.593 407.915 216.367 407.857 172.825C407.666 171.926 407.459 171.342 407.174 170.546C407.096 170.334 406.972 169.898 406.762 169.677C405.217 170.587 403.322 171.448 402.63 172.887C392.479 194.018 382.444 215.206 372.481 236.426C368.883 244.089 365.546 251.875 361.883 259.831C361.465 260.63 361.255 261.202 361.08 261.76C361.116 261.747 361.096 261.674 360.9 261.898C360.485 262.671 360.266 263.22 360.08 263.758C360.114 263.746 360.097 263.677 359.914 263.91C359.503 264.685 359.275 265.227 359.08 265.757C359.114 265.746 359.097 265.676 358.917 265.906C358.525 266.672 358.311 267.208 358.081 267.869C358.065 267.993 358.105 268.241 357.876 268.457C357.446 269.039 357.245 269.404 357.08 269.757C357.117 269.745 357.093 269.673 356.888 269.888C356.476 270.648 356.269 271.194 356.087 271.744C356.11 271.749 356.09 271.705 355.852 271.8C355.431 272.175 355.248 272.455 355.087 272.743C355.11 272.75 355.095 272.705 354.857 272.8C354.435 273.172 354.25 273.45 354.086 273.738C354.107 273.748 354.095 273.703 353.799 273.734C353.014 274.088 352.524 274.411 352.07 274.745C352.106 274.756 352.129 274.684 351.844 274.756C351.06 275.132 350.561 275.435 350.086 275.747C350.11 275.756 350.099 275.706 349.78 275.828C348.225 276.532 346.988 277.115 345.361 277.753C334.791 280.718 325.512 276.635 321.075 267.119C309.043 241.317 296.981 215.53 284.908 189.748C282.296 184.169 279.738 178.554 276.812 173.141C276.151 171.918 275.057 167.285 272.276 172.423C272.275 205.063 272.304 237.254 272.293 269.919C272.272 272.922 272.292 275.452 272.294 278.374C272.286 280.341 272.297 281.915 272.271 283.972C272.245 289.753 272.626 295.087 272.124 300.337C271.828 303.444 270.138 306.417 269.075 309.451C264.855 310.542 260.686 312.174 256.4 312.591C250.679 313.148 244.813 313.245 239.112 312.613C235.233 312.184 231.531 310.166 227.308 308.307C226.279 305.208 225.197 302.663 225.182 300.112C225.024 274.289 225.036 248.465 225.009 222.641C224.96 174.494 224.887 126.347 224.966 78.2003C224.97 76.0565 226.383 73.9151 227.14 71.7726C228.658 70.5691 230.177 69.3656 232.371 67.9227C241.785 67.6886 250.525 67.6055 259.263 67.7315C264.84 67.812 270.413 68.2021 275.988 68.4534C277.837 69.4028 279.687 70.3521 281.966 71.8219C301.31 114.398 320.225 156.453 339.139 198.508C339.674 198.435 340.209 198.363 340.744 198.29C341.551 196.734 342.467 195.224 343.146 193.613C348.502 180.898 353.613 168.075 359.193 155.458C364.905 142.542 371.177 129.874 376.99 117.001C382.186 105.496 387.091 93.8598 392.356 82.0282C393.088 80.7657 393.589 79.7567 394.159 78.5414C394.228 78.3351 394.318 77.9095 394.318 77.9095C396.453 73.7734 398.686 69.731 404.309 68.0039C418.719 67.7378 432.407 67.7183 446.096 67.6988C453.021 70.2568 455.233 75.377 455.223 82.5286C455.124 152.893 455.209 223.257 455.216 294.52C455.213 296.889 455.235 298.357 455.235 300.26C455.147 302.189 455.081 303.684 454.768 305.365C451.724 307.783 448.927 310.013 445.671 312.378C436.217 312.631 427.22 312.75 418.224 312.869Z" fill="#101110"/>
<path d="M176.911 67.5404C179.124 68.7993 181.336 70.0582 183.954 71.8336C184.966 73.8556 185.574 75.361 186.169 77.3251C186.166 150.746 186.184 223.708 186.152 296.671C186.151 298.962 185.635 301.253 185.296 303.893C184.849 305.334 184.465 306.427 184.08 307.52C181.599 309.097 179.118 310.673 175.903 312.473C164.469 312.533 153.767 312.37 143.065 312.207C140.626 310.371 138.187 308.534 135.496 306.344C135.244 305.99 135.164 305.799 135.105 305.376C134.765 302.33 134.257 299.708 134.239 297.083C134.067 271.394 133.976 245.704 133.769 219.691C132.209 217.818 130.743 216.27 128.908 214.5C127.066 214.072 125.595 213.688 124.123 213.685C103.388 213.652 82.652 213.646 61.9166 213.722C60.1465 213.729 58.3788 214.368 56.29 214.792C51.0144 217.695 51.3173 222.628 51.3005 227.22C51.2143 250.699 51.3205 274.179 51.2345 297.658C51.2237 300.602 50.4747 303.543 50.0678 306.486C48.5713 308.189 47.0747 309.892 44.9895 311.754C43.9444 312.184 43.4881 312.455 43.0318 312.725C43.0318 312.725 43.1001 312.761 42.6454 312.711C31.1528 312.613 20.1149 312.565 9.07697 312.517C6.22108 309.793 3.3652 307.069 0.315704 303.59C0.0976563 299.335 0.0528264 295.835 0.0518494 292.335C0.0315704 220.172 0.016281 148.01 0 75.8474C2.52769 73.2095 5.05539 70.5716 8.18805 67.8027C9.19278 67.6443 9.59258 67.6169 9.99236 67.5894C11.1173 67.6151 12.2423 67.6406 14.248 67.6652C24.7222 67.6087 34.3155 67.5533 43.9089 67.4979C45.7498 68.9774 47.5908 70.4568 49.7466 72.552C50.4703 76.606 51.1877 80.0397 51.238 83.4832C51.5522 105.022 51.6213 126.564 52.0464 148.1C52.1035 150.992 53.7078 153.854 54.8268 156.943C55.4149 157.369 55.772 157.582 56.1132 157.763C56.0973 157.731 56.0325 157.76 56.3467 157.981C59.0882 158.631 61.5132 159.418 63.9432 159.434C82.9866 159.558 102.031 159.573 121.075 159.515C123.697 159.507 126.318 158.917 129.154 158.489C129.639 158.207 129.882 157.999 130.323 157.647C130.744 157.269 130.941 157.003 131.111 156.731C131.085 156.725 131.097 156.778 131.328 156.665C131.756 156.277 131.953 156.002 132.119 155.733C132.087 155.738 132.111 155.798 132.335 155.6C132.753 154.843 132.946 154.285 133.113 153.735C133.087 153.743 133.128 153.78 133.372 153.441C133.769 151.128 134.052 149.155 134.058 147.181C134.12 123.982 134.141 100.783 134.182 77.4935C134.191 77.4036 134.126 77.2347 134.309 76.914C134.683 75.6564 134.875 74.7195 135.211 73.5C136.273 72.0604 137.19 70.9034 138.108 69.7464C139.281 69.2134 140.454 68.6805 142.334 67.9247C154.331 67.648 165.621 67.5942 176.911 67.5404Z" fill="#101110"/>
<path d="M537.056 101.688C537.058 88.9037 535.995 76.0032 537.37 63.368C538.688 51.2541 541.783 39.1713 545.557 27.5487C547.782 20.6973 552.1 14.1418 556.792 8.55807C565.604 -1.92884 578.994 -2.68436 588.59 5.777C599.422 15.329 602.943 28.2318 604.041 42.042C605.506 60.4728 600.292 77.2186 591.133 92.9646C590.382 94.2548 589.776 95.6287 589.059 97.3557C589.016 97.7478 589.097 97.7069 588.835 97.8103C588.321 98.1912 588.069 98.4687 587.665 98.8779C587.33 99.2126 587.192 99.4417 586.907 99.9351C586.411 100.701 586.105 101.228 585.658 101.906C585.381 102.44 585.245 102.823 584.843 103.433C584.285 104.027 583.994 104.393 583.568 104.886C583.278 105.209 583.166 105.427 582.885 105.913C582.303 106.69 581.934 107.222 581.458 107.822C581.228 108.012 581.146 108.157 580.89 108.547C580.43 109.098 580.187 109.428 579.727 110C575.029 115.045 570.744 120.056 565.986 124.566C563.476 126.946 562.766 129.24 563.417 132.465C565.05 140.565 566.511 148.699 568.036 156.821C569.225 163.153 569.587 163.344 576.193 160.837C577.766 160.474 578.946 160.124 580.114 159.758C580.102 159.743 580.095 159.776 580.095 159.776C587.402 159.898 594.867 159.099 601.985 160.321C620.081 163.425 632.052 174.808 638.768 191.382C647.598 213.175 646.232 234.885 636.027 255.995C634.605 258.935 632.3 261.447 629.984 264.677C620.721 274.568 610.613 282.113 598.472 286.724C590.763 289.653 590.763 289.653 592.848 298.104C592.982 299.558 593.064 300.616 593.122 302.032C593.12 302.871 593.142 303.35 593.165 303.829C592.812 318.265 593.676 332.858 591.821 347.098C589.044 368.413 578.323 385.446 558.148 394.683C542.927 401.651 527.03 402.06 511.709 394.733C495.398 386.932 488.621 373.421 490.45 354.789C493.213 342.844 500.347 335.361 510.406 329.901C511.546 329.473 512.357 329.114 513.132 328.743C513.097 328.729 513.067 328.798 513.4 328.768C514.537 328.413 515.342 328.089 516.121 327.748C516.096 327.732 516.083 327.79 516.515 327.79C523.306 327.825 529.665 327.861 536.315 328.086C551.928 334.668 557.909 345.433 555.493 361.911C555.108 364.538 555.439 367.269 555.439 369.952C555.905 370.195 556.371 370.438 556.837 370.682C558.997 368.58 561.449 366.701 563.261 364.333C568.162 357.93 569.982 350.348 570.909 342.044C570.941 331.715 570.934 321.833 570.954 311.502C570.649 306.577 570.237 302.104 570.012 297.622C569.836 294.118 568.214 292.691 564.662 292.638C560.015 292.568 555.331 292.298 550.739 291.611C525.719 287.869 506.746 275.486 495.057 252.577C488.427 239.583 486.363 225.783 486.849 210.991C487.965 202.264 489.052 193.972 490.341 185.388C498.842 159.422 515.493 139.769 535.667 122.7C539.606 119.368 539.971 115.563 538.23 110.685C538.168 108.777 538.081 107.321 537.962 105.509C537.639 103.998 537.348 102.843 537.056 101.688ZM615.044 203.099C614.736 202.496 614.428 201.893 613.998 200.642C606.997 186.885 594.048 180.609 579.219 183.785C573.17 185.081 572.662 185.836 573.867 191.875C577.771 211.436 581.691 230.993 585.586 250.556C586.482 255.052 587.3 259.564 588.233 264.484C596.881 262.43 602.365 256.97 607.543 251.545C613.101 245.722 617.259 238.858 617.61 229.555C618.821 220.735 618.88 212.026 615.09 203.74C615.09 203.74 615.151 203.767 615.044 203.099ZM518.263 241.038C527.639 258.108 541.679 267.988 561.464 268.75C566.884 268.959 567.735 267.724 566.816 262.618C562.98 241.315 559.152 220.012 555.31 198.711C555.062 197.338 554.718 195.983 554.334 194.234C553.178 194.896 552.457 195.083 552.097 195.548C545.29 204.357 541.212 213.826 544.852 225.227C545.315 226.676 545.108 228.339 545.211 229.903C543.475 229.759 541.532 230.069 540.039 229.391C533.899 226.605 530.81 221.614 530.085 214.924C528.667 201.841 533.123 190.189 542.244 181.826C550.778 174.002 552.136 166.224 548.762 156.284C548.443 155.345 548.354 154.33 548.122 153.358C547.457 150.566 546.774 147.779 545.922 144.264C544.008 145.761 542.83 146.411 542.009 147.368C535.949 154.432 529.128 161.018 524.107 168.766C509.462 191.358 506.049 215.306 518.263 241.038ZM556.035 67.2219C554.953 78.2642 554.591 89.2617 557.742 101.015C559.51 99.5345 560.738 98.753 561.655 97.7013C572.201 85.6142 580.205 72.1429 583.879 56.3598C585.686 48.6009 586.169 40.7312 583.171 33.2709C582.003 30.3657 579.128 26.4996 576.653 26.1999C573.802 25.855 570.338 28.6983 567.523 30.6967C566.021 31.7635 565.19 33.8982 564.289 35.6696C559.393 45.2942 556.847 55.5656 556.035 67.2219Z" fill="#101110"/>
</svg>
